<mxfile host="app.diagrams.net" modified="2024-04-07T17:38:02.269Z" agent="Mozilla/5.0 (Windows NT 10.0; Win64; x64) AppleWebKit/537.36 (KHTML, like Gecko) Chrome/123.0.0.0 Safari/537.36" version="24.2.2" etag="c1u2u6OkxVsNwENQa3VR" type="github">
  <diagram name="Page-1" id="jAGS87rSH1vF1ACMRSxT">
    <mxGraphModel>
      <root>
        <mxCell id="0" />
        <mxCell id="1" parent="0" />
      </root>
    </mxGraphModel>
  </diagram>
</mxfile>
